# xmcd CD database file generated by LOLA_Freedb v0.9beta0
# 
# Track frame offsets:
#      150
#      20797
#      39474
#      57219
#      77313
#      95545
#      113921
#      132347
#      150456
#      167113
#      183681
#      202158
#      220250
# 
# Disc length: 3079 seconds
# 
# Revision: 51 
# Processed by: cddbd v1.5.2PL0 Copyright (c) Steve Scherf et al.
# Submitted via: LOLA_Freedb v0.9beta0
# 
DISCID=b30c050d
DTITLE=Eros Ramazzotti - 9
DYEAR=2003
DGENRE=Latin
TTITLE0=Eros Ramazzotti - Un Segundo De Paz
TTITLE1=Solo Ayer
TTITLE2=Una Emoción Para Siempre
TTITLE3=Revivirte Otra Vez
TTITLE4=La Noche Son Tus Ojos
TTITLE5=Un Ancla En El Viento
TTITLE6=Piedra Pequeña
TTITLE7=Mamará, Una Gran Mujer
TTITLE8=El Hombre Que Miraba Las Nubes
TTITLE9=Canción Para Ella
TTITLE10=No Te Prometo Nada
TTITLE11=Falsa Salida
TTITLE12=Hay Una Melodía
EXTD=
EXTT0=
EXTT1=
EXTT2=
EXTT3=
EXTT4=
EXTT5=
EXTT6=
EXTT7=
EXTT8=
EXTT9=
EXTT10=
EXTT11=
EXTT12=
PLAYORDER=
